<?xml version="1.0" encoding="iso-8859-1"?>
<!-- Generator: Adobe Illustrator 19.2.1, SVG Export Plug-In . SVG Version: 6.00 Build 0)  -->
<svg xmlns="http://www.w3.org/2000/svg" xmlns:xlink="http://www.w3.org/1999/xlink" version="1.1" id="Layer_1" x="0px" y="0px" viewBox="0 0 50 50" style="enable-background:new 0 0 50 50;" xml:space="preserve" width="50px" height="50px">
<path style="fill:none;stroke:#000000;stroke-width:2;stroke-linecap:round;stroke-linejoin:round;stroke-miterlimit:10;" d="  M11.967,46.878l32.527-2.207L47,11.872"/>
<path style="fill:none;stroke:#000000;stroke-width:2;stroke-linecap:round;stroke-linejoin:round;stroke-miterlimit:10;" d="  M34.137,35.408l10.411,9.241"/>
<path style="fill:none;stroke:#000000;stroke-width:2;stroke-linecap:round;stroke-linejoin:round;stroke-miterlimit:10;" d="  M5.962,32.485l6.143,14.355"/>
<path style="fill:none;stroke:#000000;stroke-width:2;stroke-linecap:round;stroke-linejoin:round;stroke-miterlimit:10;" d="  M27.728,3l12.221,0.147"/>
<path style="fill:none;stroke:#000000;stroke-width:2;stroke-linecap:round;stroke-linejoin:round;stroke-miterlimit:10;" d="  M3,25.366v12.742"/>
<path style="fill:none;stroke:#000000;stroke-width:2;stroke-linecap:round;stroke-linejoin:round;stroke-miterlimit:10;" d="  M5.985,32.538l11.097-2.49l12.669-11.774l3.575-11.357L27.728,3l-9.603,3.524l-9.078,8.459L3,25.366L5.985,32.538z"/>
<path style="fill:none;stroke:#000000;stroke-width:2;stroke-linecap:round;stroke-linejoin:round;stroke-miterlimit:10;" d="  M17.182,30.018l16.86,5.416c-6.096,5.716-12.876,10.549-21.937,11.399L17.182,30.018z"/>
<path style="fill:none;stroke:#000000;stroke-width:2;stroke-linecap:round;stroke-linejoin:round;stroke-miterlimit:10;" d="  M29.774,18.299l4.328,17.144c5.092-5.354,9.663-11.11,11.901-18.23L29.774,18.299L29.774,18.299z"/>
<path style="fill:none;stroke:#000000;stroke-width:2;stroke-linecap:round;stroke-linejoin:round;stroke-miterlimit:10;" d="  M45.958,17.3c1.732-5.228,2.159-12.761-6.009-14.153L33.22,6.882L45.958,17.3L45.958,17.3z"/>
<path style="fill:none;stroke:#000000;stroke-width:2;stroke-linecap:round;stroke-linejoin:round;stroke-miterlimit:10;" d="  M3,38.033c0.24,8.628,6.465,8.756,9.116,8.832L5.991,32.561L3,38.033L3,38.033z"/>
</svg>
